G04 MADE WITH FRITZING*
G04 WWW.FRITZING.ORG*
G04 DOUBLE SIDED*
G04 HOLES PLATED*
G04 CONTOUR ON CENTER OF CONTOUR VECTOR*
%ASAXBY*%
%FSLAX23Y23*%
%MOIN*%
%OFA0B0*%
%SFA1.0B1.0*%
%ADD10C,0.039370*%
%ADD11C,0.078000*%
%ADD12C,0.070555*%
%ADD13C,0.070583*%
%ADD14C,0.080000*%
%ADD15C,0.062992*%
%ADD16R,0.070542X0.070570*%
%ADD17R,0.080000X0.080000*%
%ADD18R,0.062992X0.062992*%
%ADD19R,0.078000X0.078000*%
%ADD20C,0.024000*%
%ADD21C,0.048000*%
%LNCOPPER0*%
G90*
G70*
G54D10*
X424Y3254D03*
G54D11*
X277Y4056D03*
X177Y4056D03*
X77Y4056D03*
X277Y3856D03*
X177Y3856D03*
X77Y3856D03*
X277Y3656D03*
X177Y3656D03*
X77Y3656D03*
X927Y406D03*
X1027Y406D03*
X1127Y406D03*
X1227Y406D03*
X1327Y406D03*
X1427Y406D03*
X1527Y406D03*
X1627Y406D03*
G54D12*
X2227Y3656D03*
X2127Y3656D03*
X2027Y3656D03*
X1927Y3656D03*
X1827Y3656D03*
X1727Y3656D03*
X1627Y3656D03*
X1527Y3656D03*
X1427Y3656D03*
G54D13*
X1327Y3656D03*
X1227Y3656D03*
X1127Y3656D03*
G54D12*
X1027Y3656D03*
X927Y3656D03*
G54D13*
X827Y3656D03*
X727Y3656D03*
X627Y3656D03*
G54D12*
X2227Y3056D03*
X2127Y3056D03*
X2027Y3056D03*
X1927Y3056D03*
X1827Y3056D03*
X1727Y3056D03*
X1427Y3056D03*
G54D13*
X1327Y3056D03*
G54D12*
X1527Y3056D03*
X1627Y3056D03*
G54D13*
X1227Y3056D03*
X1127Y3056D03*
G54D12*
X1027Y3056D03*
X927Y3056D03*
G54D13*
X827Y3056D03*
X727Y3056D03*
X627Y3056D03*
G54D14*
X2627Y1006D03*
X2627Y868D03*
X2627Y730D03*
X2627Y592D03*
G54D15*
X627Y4307D03*
X627Y4406D03*
X2277Y4307D03*
X2277Y4406D03*
G54D11*
X1327Y4106D03*
X1327Y4006D03*
G54D10*
X2627Y1853D03*
X1929Y1853D03*
X1226Y4304D03*
X1727Y3554D03*
G54D11*
X827Y2806D03*
X827Y2706D03*
X827Y2606D03*
X827Y2506D03*
X2427Y2806D03*
X2427Y2706D03*
X2427Y2606D03*
X2427Y2506D03*
G54D10*
X2028Y2504D03*
X2077Y2604D03*
X1228Y2608D03*
X2028Y2908D03*
X2177Y1956D03*
X1025Y1956D03*
X1628Y1754D03*
X726Y1754D03*
X1528Y856D03*
X425Y856D03*
X877Y3356D03*
X2225Y1004D03*
X828Y3456D03*
X328Y3356D03*
X328Y756D03*
X2577Y3204D03*
X1925Y3208D03*
G54D16*
X2227Y3656D03*
G54D17*
X2627Y1006D03*
G54D18*
X627Y4307D03*
X2277Y4307D03*
G54D19*
X1327Y4106D03*
G54D20*
X929Y1658D02*
X927Y436D01*
D02*
X529Y1658D02*
X929Y1658D01*
D02*
X526Y3656D02*
X529Y1658D01*
D02*
X597Y3656D02*
X526Y3656D01*
G54D21*
D02*
X275Y4404D02*
X276Y4097D01*
D02*
X589Y4406D02*
X275Y4404D01*
D02*
X277Y3897D02*
X277Y4015D01*
D02*
X277Y3697D02*
X277Y3815D01*
G54D20*
D02*
X77Y4026D02*
X77Y3886D01*
D02*
X77Y3826D02*
X77Y3686D01*
D02*
X1327Y3976D02*
X1327Y3686D01*
G54D21*
D02*
X1323Y4408D02*
X1326Y4147D01*
D02*
X664Y4406D02*
X1323Y4408D01*
G54D20*
D02*
X627Y4203D02*
X627Y4281D01*
D02*
X1123Y4203D02*
X627Y4203D01*
D02*
X1126Y3686D02*
X1123Y4203D01*
G54D21*
D02*
X1727Y4108D02*
X1727Y3697D01*
D02*
X1368Y4106D02*
X1727Y4108D01*
G54D20*
D02*
X1226Y3686D02*
X1226Y4285D01*
G54D21*
D02*
X2425Y4108D02*
X2425Y4408D01*
D02*
X2425Y4408D02*
X2314Y4406D01*
D02*
X1825Y4108D02*
X2425Y4108D01*
D02*
X1825Y3809D02*
X1825Y4108D01*
D02*
X1749Y3690D02*
X1825Y3809D01*
G54D20*
D02*
X1724Y757D02*
X1726Y3026D01*
D02*
X2595Y731D02*
X1724Y757D01*
G54D21*
D02*
X2725Y1853D02*
X2657Y1853D01*
D02*
X1929Y1883D02*
X1927Y3015D01*
D02*
X2725Y654D02*
X2725Y1853D01*
D02*
X2662Y615D02*
X2725Y654D01*
G54D20*
D02*
X726Y1773D02*
X726Y3026D01*
D02*
X1627Y436D02*
X1628Y1735D01*
G54D21*
D02*
X2625Y2504D02*
X2627Y1872D01*
D02*
X2457Y2506D02*
X2625Y2504D01*
G54D20*
D02*
X827Y2676D02*
X827Y2636D01*
D02*
X2028Y2523D02*
X2028Y2889D01*
D02*
X1377Y3556D02*
X1708Y3554D01*
D02*
X847Y3456D02*
X1377Y3456D01*
D02*
X1377Y3456D02*
X1377Y3556D01*
D02*
X2328Y856D02*
X2595Y867D01*
D02*
X2325Y2604D02*
X2328Y856D01*
D02*
X2396Y2605D02*
X2325Y2604D01*
D02*
X2228Y2704D02*
X2225Y1023D01*
D02*
X2396Y2706D02*
X2228Y2704D01*
D02*
X1528Y837D02*
X1527Y436D01*
D02*
X424Y3235D02*
X425Y875D01*
D02*
X2228Y3356D02*
X2227Y3626D01*
D02*
X895Y3356D02*
X2228Y3356D01*
D02*
X1025Y1937D02*
X1026Y436D01*
D02*
X2177Y2756D02*
X2177Y1975D01*
D02*
X2227Y3026D02*
X2228Y2756D01*
D02*
X2228Y2756D02*
X2177Y2756D01*
D02*
X1228Y2589D02*
X1227Y436D01*
D02*
X2128Y2756D02*
X2077Y2756D01*
D02*
X2077Y2756D02*
X2077Y2623D01*
D02*
X2127Y3026D02*
X2128Y2756D01*
D02*
X328Y775D02*
X328Y3337D01*
D02*
X1944Y3208D02*
X2558Y3204D01*
G04 End of Copper0*
M02*