G04 MADE WITH FRITZING*
G04 WWW.FRITZING.ORG*
G04 DOUBLE SIDED*
G04 HOLES PLATED*
G04 CONTOUR ON CENTER OF CONTOUR VECTOR*
%ASAXBY*%
%FSLAX23Y23*%
%MOIN*%
%OFA0B0*%
%SFA1.0B1.0*%
%ADD10C,0.078000*%
%ADD11C,0.070555*%
%ADD12C,0.070583*%
%ADD13C,0.080000*%
%ADD14C,0.062992*%
%ADD15C,0.075000*%
%ADD16C,0.039370*%
%ADD17R,0.070542X0.070570*%
%ADD18R,0.080000X0.080000*%
%ADD19R,0.062992X0.062992*%
%ADD20R,0.078000X0.078000*%
%ADD21C,0.024000*%
%ADD22C,0.048000*%
%LNCOPPER0*%
G90*
G70*
G54D10*
X277Y4056D03*
X177Y4056D03*
X77Y4056D03*
X277Y3856D03*
X177Y3856D03*
X77Y3856D03*
X277Y3656D03*
X177Y3656D03*
X77Y3656D03*
X927Y406D03*
X1027Y406D03*
X1127Y406D03*
X1227Y406D03*
X1327Y406D03*
X1427Y406D03*
X1527Y406D03*
X1627Y406D03*
G54D11*
X2227Y3656D03*
X2127Y3656D03*
X2027Y3656D03*
X1927Y3656D03*
X1827Y3656D03*
X1727Y3656D03*
X1627Y3656D03*
X1527Y3656D03*
X1427Y3656D03*
G54D12*
X1327Y3656D03*
X1227Y3656D03*
X1127Y3656D03*
G54D11*
X1027Y3656D03*
X927Y3656D03*
G54D12*
X827Y3656D03*
X727Y3656D03*
X627Y3656D03*
G54D11*
X2227Y3056D03*
X2127Y3056D03*
X2027Y3056D03*
X1927Y3056D03*
X1827Y3056D03*
X1727Y3056D03*
X1427Y3056D03*
G54D12*
X1327Y3056D03*
G54D11*
X1527Y3056D03*
X1627Y3056D03*
G54D12*
X1227Y3056D03*
X1127Y3056D03*
G54D11*
X1027Y3056D03*
X927Y3056D03*
G54D12*
X827Y3056D03*
X727Y3056D03*
X627Y3056D03*
G54D13*
X2627Y1006D03*
X2627Y868D03*
X2627Y730D03*
X2627Y592D03*
G54D14*
X627Y4307D03*
X627Y4406D03*
X2277Y4307D03*
X2277Y4406D03*
G54D10*
X1327Y4106D03*
X1327Y4006D03*
G54D15*
X1627Y3806D03*
X1627Y4206D03*
X1527Y3806D03*
X1527Y4206D03*
G54D16*
X2627Y1853D03*
X1929Y1853D03*
X2125Y1058D03*
X2125Y1957D03*
X2679Y1957D03*
X2477Y2453D03*
X2229Y2655D03*
X1226Y2805D03*
X1226Y4304D03*
X2575Y3457D03*
X2679Y3359D03*
X2575Y3554D03*
X1727Y3554D03*
X2575Y4206D03*
X1525Y2055D03*
X424Y2055D03*
X1128Y2655D03*
X1825Y2453D03*
X1825Y1006D03*
X1226Y1006D03*
G54D17*
X2227Y3656D03*
G54D18*
X2627Y1006D03*
G54D19*
X627Y4307D03*
X2277Y4307D03*
G54D20*
X1327Y4106D03*
G54D21*
X626Y3855D02*
X626Y3686D01*
D02*
X278Y1856D02*
X278Y2905D01*
D02*
X377Y2905D02*
X377Y3855D01*
D02*
X1029Y1856D02*
X278Y1856D01*
D02*
X278Y2905D02*
X377Y2905D01*
D02*
X377Y3855D02*
X626Y3855D01*
D02*
X1027Y436D02*
X1029Y1856D01*
G54D22*
D02*
X275Y4404D02*
X276Y4086D01*
D02*
X600Y4406D02*
X275Y4404D01*
D02*
X277Y3886D02*
X277Y4026D01*
D02*
X277Y3686D02*
X277Y3826D01*
G54D21*
D02*
X77Y4026D02*
X77Y3886D01*
D02*
X77Y3826D02*
X77Y3686D01*
D02*
X2229Y3756D02*
X2227Y3686D01*
D02*
X2477Y3756D02*
X2229Y3756D01*
D02*
X2477Y2472D02*
X2477Y3756D01*
D02*
X2227Y3026D02*
X2229Y2674D01*
D02*
X1327Y3976D02*
X1327Y3686D01*
G54D22*
D02*
X1323Y4408D02*
X1326Y4136D01*
D02*
X653Y4406D02*
X1323Y4408D01*
G54D21*
D02*
X627Y4203D02*
X627Y4281D01*
D02*
X1123Y4203D02*
X627Y4203D01*
D02*
X1126Y3686D02*
X1123Y4203D01*
G54D22*
D02*
X1727Y4108D02*
X1727Y3686D01*
D02*
X1357Y4106D02*
X1727Y4108D01*
G54D21*
D02*
X1555Y4206D02*
X1598Y4206D01*
D02*
X1527Y3777D02*
X1527Y3686D01*
D02*
X1627Y3686D02*
X1627Y3777D01*
D02*
X1226Y3686D02*
X1226Y4285D01*
G54D22*
D02*
X2425Y4108D02*
X2425Y4408D01*
D02*
X2425Y4408D02*
X2303Y4406D01*
D02*
X1825Y4108D02*
X2425Y4108D01*
D02*
X1825Y3809D02*
X1825Y4108D01*
D02*
X1743Y3681D02*
X1825Y3809D01*
G54D21*
D02*
X2229Y2055D02*
X2229Y856D01*
D02*
X2575Y2055D02*
X2229Y2055D01*
D02*
X2229Y856D02*
X2595Y867D01*
D02*
X2575Y3438D02*
X2575Y2055D01*
D02*
X2125Y1077D02*
X2125Y1938D01*
D02*
X2679Y1976D02*
X2679Y3340D01*
D02*
X1727Y758D02*
X1727Y3026D01*
D02*
X2595Y731D02*
X1727Y758D01*
G54D22*
D02*
X2725Y1853D02*
X2646Y1853D01*
D02*
X1929Y1872D02*
X1927Y3026D01*
D02*
X2725Y654D02*
X2725Y1853D01*
D02*
X2653Y609D02*
X2725Y654D01*
G54D21*
D02*
X2575Y3573D02*
X2575Y4187D01*
D02*
X1727Y3086D02*
X1727Y3535D01*
D02*
X1525Y2036D02*
X1526Y436D01*
D02*
X425Y3555D02*
X424Y2074D01*
D02*
X1029Y3555D02*
X425Y3555D01*
D02*
X1027Y3626D02*
X1029Y3555D01*
D02*
X1226Y1156D02*
X1226Y2786D01*
D02*
X1323Y1156D02*
X1226Y1156D01*
D02*
X1326Y436D02*
X1323Y1156D01*
D02*
X1128Y2636D02*
X1127Y436D01*
D02*
X1825Y1025D02*
X1825Y2434D01*
D02*
X1226Y436D02*
X1226Y987D01*
D02*
X724Y2909D02*
X726Y3026D01*
D02*
X1630Y2909D02*
X724Y2909D01*
D02*
X1627Y436D02*
X1630Y2909D01*
G04 End of Copper0*
M02*