; NON-PLATED HOLES START AT T1
; THROUGH (PLATED) HOLES START AT T100
M48
INCH
T1C0.125984
T100C0.035000
T101C0.031497
T102C0.037222
T103C0.015748
T104C0.038000
T105C0.040000
T106C0.037250
%
T1
X001765Y001558
X026265Y044058
X026265Y001558
X001765Y044058
T100
X016265Y038058
X015265Y038058
X016265Y042058
X015265Y042058
T101
X022765Y044058
X022765Y043074
X006265Y044058
X006265Y043074
T102
X009265Y036558
X016265Y030558
X015265Y030558
X009265Y030558
X018265Y036558
X021265Y036558
X017265Y036558
X020265Y036558
X018265Y030558
X014265Y036558
X021265Y030558
X017265Y030558
X020265Y030558
X014265Y030558
X010265Y036558
X019265Y036558
X010265Y030558
X022265Y036558
X016265Y036558
X019265Y030558
X015265Y036558
X022265Y030558
T103
X021249Y029038
X025747Y034565
X004238Y032542
X020739Y022030
X026269Y018531
X021250Y019574
X004238Y020551
X022293Y026548
X011277Y026548
X026790Y019574
X021250Y010579
X012255Y043039
X025747Y035543
X015253Y020551
X010290Y022030
X019294Y018531
X017274Y035543
X025747Y042061
X012266Y029038
X026790Y033587
T104
X001765Y038558
X016265Y004058
X015265Y004058
X013265Y004058
X013265Y040058
X009265Y004058
X012265Y004058
X002765Y036558
X002765Y040558
X000765Y036558
X000765Y040558
X002765Y038558
X000765Y038558
X014265Y004058
X011265Y004058
X001765Y036558
X010265Y004058
X001765Y040558
X013265Y041058
T105
X026265Y008680
X026265Y010058
X026265Y007302
X026265Y005924
T106
X011265Y036558
X011265Y030558
X012265Y036558
X012265Y030558
X013265Y036558
X013265Y030558
X006265Y036558
X006265Y030558
X007265Y036558
X007265Y030558
X008265Y036558
X008265Y030558
T00
M30
