G04 MADE WITH FRITZING*
G04 WWW.FRITZING.ORG*
G04 DOUBLE SIDED*
G04 HOLES PLATED*
G04 CONTOUR ON CENTER OF CONTOUR VECTOR*
%ASAXBY*%
%FSLAX23Y23*%
%MOIN*%
%OFA0B0*%
%SFA1.0B1.0*%
%ADD10C,0.039370*%
%ADD11C,0.078000*%
%ADD12C,0.070555*%
%ADD13C,0.070583*%
%ADD14C,0.080000*%
%ADD15C,0.062992*%
%ADD16R,0.070542X0.070570*%
%ADD17R,0.080000X0.080000*%
%ADD18R,0.062992X0.062992*%
%ADD19R,0.078000X0.078000*%
%ADD20C,0.024000*%
%ADD21C,0.048000*%
%LNCOPPER1*%
G90*
G70*
G54D10*
X424Y3254D03*
G54D11*
X277Y4056D03*
X177Y4056D03*
X77Y4056D03*
X277Y3856D03*
X177Y3856D03*
X77Y3856D03*
X277Y3656D03*
X177Y3656D03*
X77Y3656D03*
X927Y406D03*
X1027Y406D03*
X1127Y406D03*
X1227Y406D03*
X1327Y406D03*
X1427Y406D03*
X1527Y406D03*
X1627Y406D03*
G54D12*
X2227Y3656D03*
X2127Y3656D03*
X2027Y3656D03*
X1927Y3656D03*
X1827Y3656D03*
X1727Y3656D03*
X1627Y3656D03*
X1527Y3656D03*
X1427Y3656D03*
G54D13*
X1327Y3656D03*
X1227Y3656D03*
X1127Y3656D03*
G54D12*
X1027Y3656D03*
X927Y3656D03*
G54D13*
X827Y3656D03*
X727Y3656D03*
X627Y3656D03*
G54D12*
X2227Y3056D03*
X2127Y3056D03*
X2027Y3056D03*
X1927Y3056D03*
X1827Y3056D03*
X1727Y3056D03*
X1427Y3056D03*
G54D13*
X1327Y3056D03*
G54D12*
X1527Y3056D03*
X1627Y3056D03*
G54D13*
X1227Y3056D03*
X1127Y3056D03*
G54D12*
X1027Y3056D03*
X927Y3056D03*
G54D13*
X827Y3056D03*
X727Y3056D03*
X627Y3056D03*
G54D14*
X2627Y1006D03*
X2627Y868D03*
X2627Y730D03*
X2627Y592D03*
G54D15*
X627Y4307D03*
X627Y4406D03*
X2277Y4307D03*
X2277Y4406D03*
G54D11*
X1327Y4106D03*
X1327Y4006D03*
G54D10*
X2627Y1853D03*
X1929Y1853D03*
X1226Y4304D03*
X1727Y3554D03*
G54D11*
X827Y2806D03*
X827Y2706D03*
X827Y2606D03*
X827Y2506D03*
X2427Y2806D03*
X2427Y2706D03*
X2427Y2606D03*
X2427Y2506D03*
G54D10*
X2028Y2504D03*
X2077Y2604D03*
X1228Y2608D03*
X2028Y2908D03*
X2177Y1956D03*
X1025Y1956D03*
X1628Y1754D03*
X726Y1754D03*
X1528Y856D03*
X425Y856D03*
X877Y3356D03*
X2225Y1004D03*
X828Y3456D03*
X328Y3356D03*
X328Y756D03*
X2577Y3204D03*
X1925Y3208D03*
G54D16*
X2227Y3656D03*
G54D17*
X2627Y1006D03*
G54D18*
X627Y4307D03*
X2277Y4307D03*
G54D19*
X1327Y4106D03*
G54D20*
X1027Y3626D02*
X1029Y3254D01*
D02*
X1029Y3254D02*
X443Y3254D01*
D02*
X174Y3958D02*
X929Y3958D01*
D02*
X176Y4026D02*
X174Y3958D01*
D02*
X929Y3958D02*
X927Y3686D01*
D02*
X475Y3758D02*
X174Y3757D01*
D02*
X828Y3757D02*
X475Y3758D01*
D02*
X827Y3686D02*
X828Y3757D01*
D02*
X174Y3757D02*
X176Y3826D01*
D02*
X730Y3503D02*
X175Y3503D01*
D02*
X727Y3626D02*
X730Y3503D01*
D02*
X175Y3503D02*
X176Y3626D01*
G54D21*
D02*
X2597Y1853D02*
X1960Y1853D01*
G54D20*
D02*
X1245Y4304D02*
X2250Y4307D01*
G54D21*
D02*
X1428Y608D02*
X2584Y593D01*
D02*
X1427Y447D02*
X1428Y608D01*
G54D20*
D02*
X2396Y2806D02*
X1728Y2804D01*
D02*
X1728Y2804D02*
X1727Y3026D01*
D02*
X857Y2506D02*
X2009Y2504D01*
D02*
X2058Y2604D02*
X1247Y2608D01*
D02*
X2328Y2923D02*
X2328Y3556D01*
D02*
X2328Y3556D02*
X2025Y3556D01*
D02*
X2047Y2907D02*
X2309Y2904D01*
D02*
X2025Y3556D02*
X2026Y3626D01*
D02*
X1727Y3086D02*
X1727Y3535D01*
D02*
X2158Y1956D02*
X1044Y1956D01*
D02*
X1609Y1754D02*
X745Y1754D01*
D02*
X444Y856D02*
X1509Y856D01*
D02*
X347Y3356D02*
X858Y3356D01*
D02*
X1125Y756D02*
X347Y756D01*
D02*
X1126Y436D02*
X1125Y756D01*
D02*
X2244Y1004D02*
X2595Y1006D01*
D02*
X77Y3456D02*
X809Y3456D01*
D02*
X77Y3626D02*
X77Y3456D01*
D02*
X1628Y3156D02*
X277Y3156D01*
D02*
X277Y3156D02*
X277Y2704D01*
D02*
X1627Y3626D02*
X1628Y3156D01*
D02*
X277Y2704D02*
X796Y2706D01*
D02*
X2577Y3185D02*
X2577Y2356D01*
D02*
X2577Y2356D02*
X2277Y2356D01*
D02*
X2277Y2356D02*
X2277Y2704D01*
D02*
X2277Y2704D02*
X1028Y2704D01*
D02*
X1028Y2704D02*
X1028Y2804D01*
D02*
X1028Y2804D02*
X857Y2806D01*
D02*
X1926Y3626D02*
X1925Y3227D01*
G04 End of Copper1*
M02*