; NON-PLATED HOLES START AT T1
; THROUGH (PLATED) HOLES START AT T100
M48
INCH
T1C0.125984
T100C0.031497
T101C0.037222
T102C0.038000
T103C0.015748
T104C0.040000
T105C0.037250
%
T1
X001765Y001558
X026265Y044058
X026265Y001558
X001765Y044058
T100
X022765Y044058
X022765Y043074
X006265Y044058
X006265Y043074
T101
X019265Y030558
X015265Y036558
X022265Y030558
X018265Y030558
X021265Y030558
X009265Y036558
X015265Y030558
X009265Y030558
X017265Y036558
X020265Y036558
X016265Y036558
X014265Y036558
X017265Y030558
X020265Y030558
X016265Y030558
X014265Y030558
X010265Y036558
X019265Y036558
X010265Y030558
X022265Y036558
X018265Y036558
X021265Y036558
T102
X010265Y004058
X000765Y036558
X001765Y040558
X024265Y025058
X000765Y040558
X008265Y027058
X001765Y038558
X000765Y038558
X024265Y027058
X015265Y004058
X009265Y004058
X012265Y004058
X002765Y036558
X011265Y004058
X002765Y040558
X008265Y026058
X013265Y041058
X024265Y026058
X002765Y038558
X016265Y004058
X008265Y028058
X014265Y004058
X008265Y025058
X013265Y004058
X013265Y040058
X024265Y028058
X001765Y036558
T103
X020283Y029077
X022246Y010040
X003283Y007558
X008283Y034558
X003283Y033558
X012283Y026077
X012255Y043039
X008765Y033558
X020765Y026040
X019294Y018531
X026269Y018531
X010246Y019558
X004246Y008558
X019246Y032077
X021765Y019558
X016276Y017538
X004238Y032542
X007260Y017538
X017274Y035543
X015283Y008558
X020283Y025040
X025765Y032040
T104
X026265Y008680
X026265Y010058
X026265Y007302
X026265Y005924
T105
X006265Y036558
X006265Y030558
X007265Y036558
X007265Y030558
X008265Y036558
X008265Y030558
X011265Y036558
X011265Y030558
X012265Y036558
X012265Y030558
X013265Y036558
X013265Y030558
T00
M30
