G04 MADE WITH FRITZING*
G04 WWW.FRITZING.ORG*
G04 DOUBLE SIDED*
G04 HOLES PLATED*
G04 CONTOUR ON CENTER OF CONTOUR VECTOR*
%ASAXBY*%
%FSLAX23Y23*%
%MOIN*%
%OFA0B0*%
%SFA1.0B1.0*%
%ADD10C,0.078000*%
%ADD11C,0.070555*%
%ADD12C,0.070583*%
%ADD13C,0.080000*%
%ADD14C,0.062992*%
%ADD15C,0.075000*%
%ADD16C,0.039370*%
%ADD17R,0.070542X0.070570*%
%ADD18R,0.080000X0.080000*%
%ADD19R,0.062992X0.062992*%
%ADD20R,0.078000X0.078000*%
%ADD21C,0.024000*%
%ADD22C,0.048000*%
%LNCOPPER1*%
G90*
G70*
G54D10*
X277Y4056D03*
X177Y4056D03*
X77Y4056D03*
X277Y3856D03*
X177Y3856D03*
X77Y3856D03*
X277Y3656D03*
X177Y3656D03*
X77Y3656D03*
X927Y406D03*
X1027Y406D03*
X1127Y406D03*
X1227Y406D03*
X1327Y406D03*
X1427Y406D03*
X1527Y406D03*
X1627Y406D03*
G54D11*
X2227Y3656D03*
X2127Y3656D03*
X2027Y3656D03*
X1927Y3656D03*
X1827Y3656D03*
X1727Y3656D03*
X1627Y3656D03*
X1527Y3656D03*
X1427Y3656D03*
G54D12*
X1327Y3656D03*
X1227Y3656D03*
X1127Y3656D03*
G54D11*
X1027Y3656D03*
X927Y3656D03*
G54D12*
X827Y3656D03*
X727Y3656D03*
X627Y3656D03*
G54D11*
X2227Y3056D03*
X2127Y3056D03*
X2027Y3056D03*
X1927Y3056D03*
X1827Y3056D03*
X1727Y3056D03*
X1427Y3056D03*
G54D12*
X1327Y3056D03*
G54D11*
X1527Y3056D03*
X1627Y3056D03*
G54D12*
X1227Y3056D03*
X1127Y3056D03*
G54D11*
X1027Y3056D03*
X927Y3056D03*
G54D12*
X827Y3056D03*
X727Y3056D03*
X627Y3056D03*
G54D13*
X2627Y1006D03*
X2627Y868D03*
X2627Y730D03*
X2627Y592D03*
G54D14*
X627Y4307D03*
X627Y4406D03*
X2277Y4307D03*
X2277Y4406D03*
G54D10*
X1327Y4106D03*
X1327Y4006D03*
G54D15*
X1627Y3806D03*
X1627Y4206D03*
X1527Y3806D03*
X1527Y4206D03*
G54D16*
X2627Y1853D03*
X1929Y1853D03*
X2125Y1058D03*
X2125Y1957D03*
X2679Y1957D03*
X2229Y2655D03*
X1226Y4304D03*
X2575Y3457D03*
X2679Y3359D03*
X2575Y3554D03*
X1727Y3554D03*
X2575Y4206D03*
X1525Y2055D03*
X424Y2055D03*
X1128Y2655D03*
X1029Y2203D03*
X2074Y2203D03*
X2125Y2904D03*
X1227Y2904D03*
X424Y3254D03*
G54D17*
X2227Y3656D03*
G54D18*
X2627Y1006D03*
G54D19*
X627Y4307D03*
X2277Y4307D03*
G54D20*
X1327Y4106D03*
G54D21*
X80Y4203D02*
X1498Y4206D01*
D02*
X174Y3958D02*
X929Y3958D01*
D02*
X176Y4026D02*
X174Y3958D01*
D02*
X929Y3958D02*
X927Y3686D01*
D02*
X828Y3757D02*
X475Y3758D01*
D02*
X475Y3758D02*
X174Y3757D01*
D02*
X827Y3686D02*
X828Y3757D01*
D02*
X174Y3757D02*
X176Y3826D01*
D02*
X730Y3503D02*
X175Y3503D01*
D02*
X727Y3626D02*
X730Y3503D01*
D02*
X175Y3503D02*
X176Y3626D01*
D02*
X77Y4086D02*
X80Y4203D01*
G54D22*
D02*
X2597Y1853D02*
X1960Y1853D01*
G54D21*
D02*
X2125Y1006D02*
X2125Y1039D01*
D02*
X2595Y1006D02*
X2125Y1006D01*
D02*
X2144Y1957D02*
X2660Y1957D01*
D02*
X1245Y4304D02*
X2250Y4307D01*
D02*
X1630Y3457D02*
X2556Y3457D01*
D02*
X1627Y3626D02*
X1630Y3457D01*
D02*
X2660Y3359D02*
X1525Y3359D01*
D02*
X1525Y3359D02*
X1526Y3626D01*
D02*
X1746Y3554D02*
X2556Y3554D01*
D02*
X2556Y4206D02*
X1655Y4206D01*
D02*
X443Y2055D02*
X1506Y2055D01*
G54D22*
D02*
X1428Y608D02*
X2584Y593D01*
D02*
X1427Y447D02*
X1428Y608D01*
G54D21*
D02*
X2210Y2655D02*
X1147Y2655D01*
D02*
X2055Y2203D02*
X1048Y2203D01*
D02*
X2106Y2904D02*
X1246Y2904D01*
D02*
X1029Y3254D02*
X443Y3254D01*
D02*
X1027Y3626D02*
X1029Y3254D01*
G04 End of Copper1*
M02*